<svg xmlns="http://www.w3.org/2000/svg" width="10" height="10" viewBox="0 0 10 10" fill="none">
    <path d="M5.0042 9.17999C4.57795 9.17999 4.18336 8.96291 3.95753 8.61374L3.91461 8.54208L0.956282 3.43791L0.930448 3.38541C0.856543 3.20263 0.82692 3.00497 0.843996 2.80856C0.861073 2.61215 0.924367 2.42256 1.02871 2.25528C1.13305 2.088 1.27548 1.94778 1.44436 1.84606C1.61324 1.74434 1.80379 1.68401 2.00045 1.66999L2.08336 1.66666L7.9167 1.66666L7.93711 1.66791L7.98378 1.66708C8.16936 1.67663 8.35048 1.72743 8.51395 1.8158C8.67743 1.90417 8.81914 2.02787 8.92878 2.17791L8.9742 2.24458C9.07343 2.40048 9.13686 2.57645 9.15991 2.75982C9.18297 2.94318 9.16508 3.12937 9.10753 3.30499L9.07753 3.38583L9.05253 3.43791L6.09753 8.53499C5.98945 8.7304 5.831 8.89328 5.63865 9.00671C5.44631 9.12014 5.22708 9.17998 5.00378 9.17999H5.0042Z" fill="#E03528"/>
</svg>